<svg id="Layer_12" data-name="Layer 12" xmlns="http://www.w3.org/2000/svg" viewBox="0 0 906.87 145.95"><defs><style>.cls-1{fill:#007aff;}.cls-2,.cls-3{fill:none;stroke:#007aff;stroke-miterlimit:10;}.cls-2{stroke-width:3.47px;}.cls-3{stroke-width:1.6px;}</style></defs><title>Tatsatt full logo</title><rect class="cls-1" x="51.74" y="103.95" width="40.18" height="40.18" rx="8"/><rect class="cls-1" y="103.95" width="40.18" height="40.18" rx="8"/><rect class="cls-1" x="51.79" y="52.15" width="40.18" height="40.18" rx="8"/><rect class="cls-1" x="51.74" y="0.36" width="40.18" height="40.18" rx="8"/><rect class="cls-1" x="103.57" y="52.15" width="40.18" height="40.18" rx="8"/><rect class="cls-1" y="52.15" width="40.18" height="40.18" rx="8"/><line class="cls-2" x1="103.57" y1="39.1" x2="116.79" y2="24.07"/><line class="cls-2" x1="116.79" y1="24.07" x2="128.73" y2="36.28"/><line class="cls-3" x1="138.8" y1="20.43" x2="138.8" y2="20.43"/><line class="cls-2" x1="140.2" y1="15.8" x2="128.73" y2="36.28"/><circle class="cls-1" cx="103.5" cy="39.42" r="3.73"/><circle class="cls-1" cx="116.79" cy="24.07" r="3.73"/><circle class="cls-1" cx="128.73" cy="36.28" r="3.73"/><circle class="cls-1" cx="140.2" cy="15.8" r="3.73"/><path class="cls-1" d="M434.43,274.52q-9.69-7.35-9.69-22.26,0-16,14.48-23.11T479.91,222h5.53q0-20.23-5.53-28t-16.19-7.77q-9.17,0-14.8,4.15t-8,14.38H430.7a64.75,64.75,0,0,1,.86-11.72A15.34,15.34,0,0,1,436,185q3.83-3.84,12.46-5.64A95.11,95.11,0,0,1,468,177.5q18.31,0,28.65,9.79T507,222.23v57.51H494.39l-7.45-9.59h-1.07a29.86,29.86,0,0,1-11.08,8.31q-7.23,3.41-17.67,3.41A36.48,36.48,0,0,1,434.43,274.52Zm51-15.66V230.75h-5.53q-15.77,0-24.18,5.64a18,18,0,0,0-8.41,15.87q0,9.58,5.22,14.7a18.24,18.24,0,0,0,13.31,5.11Q478.19,272.07,485.44,258.86Z" transform="translate(-101.63 -137.36)"/><path class="cls-1" d="M557,274.73q-7.25-7.14-7.24-21.41v-65H535.5v-8.73h14.27V160.46l10.65-12.78h10.86v31.95H596.2v8.73H571.28v65.18q0,10,3.41,14.8t10.43,4.79a26.21,26.21,0,0,0,8.74-1.28,48.58,48.58,0,0,0,7.45-3.4l2.35,4.68q-10.67,8.75-26.84,8.74Q564.25,281.87,557,274.73Z" transform="translate(-101.63 -137.36)"/><path class="cls-1" d="M650.53,280.16a49.58,49.58,0,0,1-18.06-8.93q-7-5.78-7-13.33V234.8h4.41q3.35,21,13.65,30.45t28.35,9.45q11.53,0,19.32-5.57t7.77-15.64a23,23,0,0,0-5.36-15.23q-5.36-6.4-17.32-13.33L650.43,209.6q-13.65-8-19.32-16.38t-5.67-20.16q0-16.17,11.65-25.94t30.77-9.76a78.33,78.33,0,0,1,21.73,3A46.44,46.44,0,0,1,707,149.22q6.83,5.78,6.83,13.34v23.1h-4.41q-3.57-21-13.44-30.35T668.49,146a26.21,26.21,0,0,0-17.22,5.88A18.7,18.7,0,0,0,644.13,167a19.54,19.54,0,0,0,5.25,14q5.25,5.56,17.64,13.13l25.83,15.33q14.28,8.4,20.37,16.06t6.09,19q0,17.85-12.29,28.35t-33.7,10.5A82.56,82.56,0,0,1,650.53,280.16Z" transform="translate(-101.63 -137.36)"/><path class="cls-1" d="M755.78,274.52q-9.71-7.35-9.7-22.26,0-16,14.49-23.11T801.25,222h5.54q0-20.23-5.54-28t-16.19-7.77q-9.15,0-14.8,4.15t-8,14.38H752.05A64.88,64.88,0,0,1,752.9,193a15.47,15.47,0,0,1,4.47-8.09q3.84-3.84,12.46-5.64a95.11,95.11,0,0,1,19.49-1.81q18.31,0,28.65,9.79t10.33,34.94v57.51H815.74l-7.46-9.59h-1.07a29.81,29.81,0,0,1-11.07,8.31q-7.25,3.41-17.68,3.41A36.47,36.47,0,0,1,755.78,274.52Zm51-15.66V230.75h-5.54q-15.76,0-24.17,5.64a18,18,0,0,0-8.42,15.87q0,9.58,5.22,14.7a18.25,18.25,0,0,0,13.31,5.11Q799.55,272.07,806.79,258.86Z" transform="translate(-101.63 -137.36)"/><path class="cls-1" d="M878.35,274.73q-7.23-7.14-7.24-21.41v-65H856.84v-8.73h14.27V160.46l10.65-12.78h10.87v31.95h24.92v8.73H892.63v65.18q0,10,3.4,14.8t10.44,4.79a26.1,26.1,0,0,0,8.73-1.28,48.67,48.67,0,0,0,7.46-3.4l2.34,4.68q-10.65,8.75-26.84,8.74Q885.59,281.87,878.35,274.73Z" transform="translate(-101.63 -137.36)"/><path class="cls-1" d="M961.85,274.73q-7.25-7.14-7.24-21.41v-65H940.33v-8.73h14.28V160.46l10.65-12.78h10.86v31.95H1001v8.73H976.12v65.18q0,10,3.41,14.8T990,273.13a26.21,26.21,0,0,0,8.74-1.28,48.58,48.58,0,0,0,7.45-3.4l2.35,4.68q-10.66,8.75-26.84,8.74Q969.09,281.87,961.85,274.73Z" transform="translate(-101.63 -137.36)"/><path class="cls-1" d="M330.28,147.89H312.17q-26.19,0-26.19,24.92h-4.69V156.2q0-17,18.1-17h99.26v8.73H351.58" transform="translate(-101.63 -137.36)"/><path class="cls-1" d="M350.44,147.89H303.37v-8.73h99.26q18.11,0,18.1,17v16.61h-4.68q0-24.92-26.2-24.92H371.74" transform="translate(-101.63 -137.36)"/><path class="cls-1" d="M361.27,147.89V279.74H340V147.89m68.37-8.73" transform="translate(-101.63 -137.36)"/></svg>